<?xml version="1.0" encoding="UTF-8"?>
<svg version="1.1" xmlns="http://www.w3.org/2000/svg" width="289" height="174">
<path d="M0 0 C95.37 0 190.74 0 289 0 C289 57.42 289 114.84 289 174 C193.63 174 98.26 174 0 174 C0 116.58 0 59.16 0 0 Z " fill="#000000" transform="translate(0,0)"/>
<path d="M0 0 C1.88378906 0.31518555 1.88378906 0.31518555 4 1 C4.66483398 1.15186768 5.32966797 1.30373535 6.01464844 1.46020508 C12.18459403 3.10768123 17.5382675 5.43099183 21 11 C22.7370534 16.91926467 22.65169432 23.13272707 22.625 29.25 C22.63366089 30.06779938 22.64232178 30.88559875 22.65124512 31.72817993 C22.67287868 44.86876945 22.67287868 44.86876945 19.25976562 49.21704102 C16.91562532 50.81230064 14.60619993 51.88846811 12 53 C10.22197068 54.06152485 8.45651121 55.14434057 6.703125 56.24609375 C4.88741945 57.31331061 3.06969198 58.37709462 1.25 59.4375 C0.33089844 59.99115234 -0.58820313 60.54480469 -1.53515625 61.11523438 C-2.42589844 61.63279297 -3.31664062 62.15035156 -4.234375 62.68359375 C-5.03069336 63.15337646 -5.82701172 63.62315918 -6.64746094 64.10717773 C-9.59509452 65.22584689 -11.01973089 64.9498725 -14 64 C-16.16894531 62.97192383 -16.16894531 62.97192383 -18.328125 61.70703125 C-19.12863281 61.24103516 -19.92914063 60.77503906 -20.75390625 60.29492188 C-21.57761719 59.80572266 -22.40132812 59.31652344 -23.25 58.8125 C-24.05824219 58.34263672 -24.86648437 57.87277344 -25.69921875 57.38867188 C-31.26979299 54.12208714 -36.66434052 50.63642018 -42 47 C-41.68139648 45.12817383 -41.68139648 45.12817383 -41 43 C-38.70784691 41.38037635 -36.51103286 40.0320408 -34.0625 38.6875 C-32.9633728 38.06258667 -32.9633728 38.06258667 -31.84204102 37.42504883 C-30.18031295 36.48035041 -28.51562792 35.54084171 -26.84863281 34.60546875 C-22.51416335 32.16259326 -18.20691923 29.67270893 -13.89819336 27.18481445 C-11.62989201 25.87568053 -9.3599282 24.56942197 -7.08813477 23.26635742 C-1.31830354 19.95123318 4.38578071 16.572685 10 13 C3.09910466 8.34430104 3.09910466 8.34430104 -4 4 C-2.25 1.9375 -2.25 1.9375 0 0 Z " fill="#F0F0F0" transform="translate(155,74)"/>
<path d="M0 0 C4.77640966 0.41198495 8.09232046 1.90745545 12.203125 4.30859375 C13.0489212 4.79876732 13.0489212 4.79876732 13.9118042 5.29884338 C15.09412179 5.98632148 16.27388855 6.67820366 17.45117188 7.37426758 C19.25358677 8.43962003 21.0634072 9.49136033 22.875 10.54101562 C31.69338861 15.69338861 31.69338861 15.69338861 34 18 C33.89282227 19.95361328 33.89282227 19.95361328 33 22 C31.15600586 23.42529297 31.15600586 23.42529297 28.71484375 24.7421875 C27.80259033 25.24443848 26.89033691 25.74668945 25.95043945 26.26416016 C24.45903442 27.06152588 24.45903442 27.06152588 22.9375 27.875 C20.84544093 29.024381 18.75432632 30.17548239 16.6640625 31.328125 C15.57383789 31.92560547 14.48361328 32.52308594 13.36035156 33.13867188 C7.79739992 36.22003945 2.30411455 39.41871573 -3.1875 42.625 C-4.20787354 43.21651855 -5.22824707 43.80803711 -6.27954102 44.41748047 C-7.70931274 45.25110107 -7.70931274 45.25110107 -9.16796875 46.1015625 C-10.00610107 46.58963379 -10.8442334 47.07770508 -11.70776367 47.58056641 C-13.9091279 48.94372879 -15.95616105 50.41253515 -18 52 C-17.0615625 52.54269531 -16.123125 53.08539063 -15.15625 53.64453125 C-13.9371573 54.36660923 -12.71842575 55.08929719 -11.5 55.8125 C-10.87996094 56.16892578 -10.25992188 56.52535156 -9.62109375 56.89257812 C-8.0286112 57.84631767 -6.50753916 58.91697393 -5 60 C-5 60.99 -5 61.98 -5 63 C-9.29370169 64.09709369 -12.03567427 64.32794232 -15.89453125 62.19921875 C-17.21277406 61.38140777 -18.51876472 60.54355369 -19.8125 59.6875 C-20.47958984 59.27048828 -21.14667969 58.85347656 -21.83398438 58.42382812 C-24.44021885 56.77487856 -26.81370926 55.18629074 -29 53 C-29.17517747 50.27514272 -29.23149133 47.65340638 -29.1953125 44.9296875 C-29.1924826 44.13345978 -29.18965271 43.33723206 -29.18673706 42.51687622 C-29.1755264 39.96943237 -29.15042062 37.42233789 -29.125 34.875 C-29.11497133 33.14974465 -29.10584528 31.42448381 -29.09765625 29.69921875 C-29.07558422 25.46601086 -29.04104867 21.2330647 -29 17 C-28.15703369 16.52054932 -27.31406738 16.04109863 -26.44555664 15.54711914 C-23.32678871 13.77270651 -20.20923146 11.99617631 -17.09204102 10.21899414 C-15.7411352 9.44920696 -14.38989901 8.67999926 -13.03833008 7.91137695 C-11.09890584 6.80831608 -9.16066808 5.70319629 -7.22265625 4.59765625 C-6.31169945 4.08042747 -6.31169945 4.08042747 -5.38233948 3.55274963 C-2.52061366 2.01212519 -2.52061366 2.01212519 0 0 Z " fill="#F1F1F1" transform="translate(142,35)"/>
<path d="M0 0 C0.66 0 1.32 0 2 0 C2 0.66 2 1.32 2 2 C3.175625 2.309375 3.175625 2.309375 4.375 2.625 C16.63829787 7.27659574 16.63829787 7.27659574 19 12 C16.21251481 13.67373751 13.41935573 15.33776267 10.625 17 C9.8309375 17.47695313 9.036875 17.95390625 8.21875 18.4453125 C7.07792969 19.12207031 7.07792969 19.12207031 5.9140625 19.8125 C5.2123291 20.23144531 4.5105957 20.65039062 3.78759766 21.08203125 C2 22 2 22 0 22 C0 14.74 0 7.48 0 0 Z " fill="#121212" transform="translate(147,43)"/>
<path d="M0 0 C0 7.26 0 14.52 0 22 C-2.206875 20.741875 -4.41375 19.48375 -6.6875 18.1875 C-7.37287842 17.79715576 -8.05825684 17.40681152 -8.7644043 17.00463867 C-12.20123902 15.04293863 -15.61553071 13.05138961 -19 11 C-16.22312644 7.75177521 -12.60938618 5.87816944 -8.9375 3.8125 C-8.30005859 3.44447266 -7.66261719 3.07644531 -7.00585938 2.69726562 C-2.25687036 0 -2.25687036 0 0 0 Z " fill="#101010" transform="translate(142,109)"/>
<path d="M0 0 C0 6.93 0 13.86 0 21 C-3.12912467 19.74835013 -5.71373125 18.69858563 -8.55078125 17.0546875 C-9.16630859 16.70019531 -9.78183594 16.34570312 -10.41601562 15.98046875 C-11.04185547 15.61566406 -11.66769531 15.25085938 -12.3125 14.875 C-12.95767578 14.50246094 -13.60285156 14.12992188 -14.26757812 13.74609375 C-15.84675945 12.83367787 -17.42361864 11.91724491 -19 11 C-15.96453199 7.6938999 -12.81374535 5.49793411 -8.9375 3.25 C-7.89464844 2.63640625 -6.85179687 2.0228125 -5.77734375 1.390625 C-3 0 -3 0 0 0 Z " fill="#0F0F0F" transform="translate(170,93)"/>
<path d="M0 0 C3.12912467 1.25164987 5.71373125 2.30141437 8.55078125 3.9453125 C9.16630859 4.29980469 9.78183594 4.65429688 10.41601562 5.01953125 C11.35477539 5.56673828 11.35477539 5.56673828 12.3125 6.125 C12.95767578 6.49753906 13.60285156 6.87007813 14.26757812 7.25390625 C15.84675945 8.16632213 17.42361864 9.08275509 19 10 C16.22312644 13.24822479 12.60938618 15.12183056 8.9375 17.1875 C8.30005859 17.55552734 7.66261719 17.92355469 7.00585938 18.30273438 C2.25687036 21 2.25687036 21 0 21 C0 14.07 0 7.14 0 0 Z " fill="#0D0D0D" transform="translate(119,60)"/>
<path d="M0 0 C0 6.93 0 13.86 0 21 C-6.03409511 17.72221994 -12.05422551 14.43533637 -18 11 C-14.95124073 7.67140292 -11.78089042 5.49564707 -7.875 3.25 C-6.82054687 2.63640625 -5.76609375 2.0228125 -4.6796875 1.390625 C-2 0 -2 0 0 0 Z " fill="#060606" transform="translate(141,44)"/>
<path d="M0 0 C12.85714286 6.28571429 12.85714286 6.28571429 18 10 C15.21629142 13.26828007 11.56811335 15.12457911 7.875 17.1875 C7.22917969 17.55552734 6.58335937 17.92355469 5.91796875 18.30273438 C1.14395872 21 1.14395872 21 0 21 C0 14.07 0 7.14 0 0 Z " fill="#040404" transform="translate(148,109)"/>
</svg>
